<?xml version="1.0" encoding="UTF-8"?>
<svg version="1.1" xmlns="http://www.w3.org/2000/svg" width="1024" height="1024">
<path d="M0 0 C5.26460228 3.1492756 5.26460228 3.1492756 6.54296875 6.984375 C7.20296875 6.984375 7.86296875 6.984375 8.54296875 6.984375 C8.87296875 8.634375 9.20296875 10.284375 9.54296875 11.984375 C10.20296875 11.984375 10.86296875 11.984375 11.54296875 11.984375 C11.87296875 13.634375 12.20296875 15.284375 12.54296875 16.984375 C13.20296875 16.984375 13.86296875 16.984375 14.54296875 16.984375 C15.21705183 18.25129007 15.88197372 19.52308249 16.54296875 20.796875 C16.91421875 21.50457031 17.28546875 22.21226562 17.66796875 22.94140625 C18.54296875 24.984375 18.54296875 24.984375 18.54296875 27.984375 C19.53296875 28.314375 20.52296875 28.644375 21.54296875 28.984375 C22.796875 30.92578125 22.796875 30.92578125 24.10546875 33.546875 C27.17232253 39.45542114 30.6555866 45.01860665 34.29125977 50.58813477 C37.54296875 55.66274322 37.54296875 55.66274322 37.54296875 58.984375 C38.20296875 58.984375 38.86296875 58.984375 39.54296875 58.984375 C40.10564453 60.03625 40.10564453 60.03625 40.6796875 61.109375 C43.50212021 66.34189508 46.38050832 71.46505592 49.66015625 76.42578125 C50.54296875 77.984375 50.54296875 77.984375 50.54296875 79.984375 C51.20296875 79.984375 51.86296875 79.984375 52.54296875 79.984375 C52.87296875 81.634375 53.20296875 83.284375 53.54296875 84.984375 C54.20296875 84.984375 54.86296875 84.984375 55.54296875 84.984375 C57.015625 87.03125 57.015625 87.03125 58.60546875 89.734375 C59.39630859 91.05695313 59.39630859 91.05695313 60.203125 92.40625 C61.37136362 94.6541727 62.07517657 96.51258424 62.54296875 98.984375 C63.20296875 98.984375 63.86296875 98.984375 64.54296875 98.984375 C65.38145679 100.43975068 66.21360809 101.89877873 67.04296875 103.359375 C67.7390625 104.57753906 67.7390625 104.57753906 68.44921875 105.8203125 C69.54296875 107.984375 69.54296875 107.984375 69.54296875 109.984375 C70.20296875 109.984375 70.86296875 109.984375 71.54296875 109.984375 C71.87296875 111.634375 72.20296875 113.284375 72.54296875 114.984375 C73.53296875 115.314375 74.52296875 115.644375 75.54296875 115.984375 C76.7890625 117.83984375 76.7890625 117.83984375 77.98046875 120.171875 C79.47802888 123.02631537 80.9887074 125.73134573 82.85546875 128.359375 C84.54296875 130.984375 84.54296875 130.984375 84.54296875 133.984375 C85.53296875 134.314375 86.52296875 134.644375 87.54296875 134.984375 C87.87296875 136.634375 88.20296875 138.284375 88.54296875 139.984375 C89.20296875 139.984375 89.86296875 139.984375 90.54296875 139.984375 C90.87296875 141.634375 91.20296875 143.284375 91.54296875 144.984375 C92.20296875 144.984375 92.86296875 144.984375 93.54296875 144.984375 C95.015625 147.03125 95.015625 147.03125 96.60546875 149.734375 C97.13269531 150.61609375 97.65992188 151.4978125 98.203125 152.40625 C99.37136362 154.6541727 100.07517657 156.51258424 100.54296875 158.984375 C101.20296875 158.984375 101.86296875 158.984375 102.54296875 158.984375 C102.94515625 160.1290625 102.94515625 160.1290625 103.35546875 161.296875 C104.351504 163.98844872 104.351504 163.98844872 106.16796875 165.609375 C106.84859375 166.29 106.84859375 166.29 107.54296875 166.984375 C107.54296875 167.974375 107.54296875 168.964375 107.54296875 169.984375 C108.20296875 169.984375 108.86296875 169.984375 109.54296875 169.984375 C109.87296875 171.634375 110.20296875 173.284375 110.54296875 174.984375 C111.20296875 174.984375 111.86296875 174.984375 112.54296875 174.984375 C116.54296875 180.27849265 116.54296875 180.27849265 116.54296875 183.984375 C117.20296875 183.984375 117.86296875 183.984375 118.54296875 183.984375 C118.87296875 185.634375 119.20296875 187.284375 119.54296875 188.984375 C120.20296875 188.984375 120.86296875 188.984375 121.54296875 188.984375 C122.83203125 190.62890625 122.83203125 190.62890625 124.16796875 192.796875 C124.61398437 193.50457031 125.06 194.21226562 125.51953125 194.94140625 C126.54296875 196.984375 126.54296875 196.984375 126.54296875 199.984375 C127.20296875 199.984375 127.86296875 199.984375 128.54296875 199.984375 C128.87296875 201.634375 129.20296875 203.284375 129.54296875 204.984375 C130.20296875 204.984375 130.86296875 204.984375 131.54296875 204.984375 C132.69921875 206.64453125 132.69921875 206.64453125 134.04296875 209.046875 C135.96454127 212.38459402 137.95289082 215.63380364 140.125 218.8125 C140.79982422 219.80044556 140.79982422 219.80044556 141.48828125 220.80834961 C142.38702212 222.1155361 143.29181336 223.41858702 144.203125 224.71704102 C146.52227778 228.10584933 148.12673968 230.86135123 148.54296875 234.984375 C149.53296875 235.314375 150.52296875 235.644375 151.54296875 235.984375 C152.59115739 237.69959278 153.63708328 239.41904902 154.578125 241.1953125 C155.64029295 243.23140885 155.64029295 243.23140885 157.54296875 245.984375 C157.54296875 246.974375 157.54296875 247.964375 157.54296875 248.984375 C158.20296875 248.984375 158.86296875 248.984375 159.54296875 248.984375 C161.39124309 252.5969112 163.0934642 256.1933631 164.54296875 259.984375 C165.20296875 259.984375 165.86296875 259.984375 166.54296875 259.984375 C166.87296875 261.634375 167.20296875 263.284375 167.54296875 264.984375 C168.20296875 264.984375 168.86296875 264.984375 169.54296875 264.984375 C169.87296875 266.634375 170.20296875 268.284375 170.54296875 269.984375 C171.20296875 269.984375 171.86296875 269.984375 172.54296875 269.984375 C173.76953125 271.71484375 173.76953125 271.71484375 175.16796875 274.171875 C176.97605085 277.30021506 178.79435884 280.41219985 180.71484375 283.47265625 C181.26277588 284.34724487 181.26277588 284.34724487 181.82177734 285.23950195 C182.88131445 286.92603016 183.9425796 288.61147237 185.00390625 290.296875 C186.54296875 292.984375 186.54296875 292.984375 186.54296875 294.984375 C187.20296875 294.984375 187.86296875 294.984375 188.54296875 294.984375 C188.87296875 296.634375 189.20296875 298.284375 189.54296875 299.984375 C190.20296875 299.984375 190.86296875 299.984375 191.54296875 299.984375 C193.01151363 302.18719232 194.35312932 304.37904203 195.66796875 306.671875 C196.47046685 308.04478987 197.27387096 309.41717552 198.078125 310.7890625 C198.48562988 311.48741211 198.89313477 312.18576172 199.31298828 312.90527344 C201.82325063 317.14850372 204.47863527 321.30347223 207.109375 325.47265625 C208.54296875 327.984375 208.54296875 327.984375 208.54296875 329.984375 C209.20296875 329.984375 209.86296875 329.984375 210.54296875 329.984375 C214.54296875 336.734375 214.54296875 336.734375 214.54296875 338.984375 C215.20296875 338.984375 215.86296875 338.984375 216.54296875 338.984375 C216.87296875 340.634375 217.20296875 342.284375 217.54296875 343.984375 C218.20296875 343.984375 218.86296875 343.984375 219.54296875 343.984375 C220.20296875 345.964375 220.86296875 347.944375 221.54296875 349.984375 C222.20296875 349.984375 222.86296875 349.984375 223.54296875 349.984375 C223.87296875 351.634375 224.20296875 353.284375 224.54296875 354.984375 C225.20296875 354.984375 225.86296875 354.984375 226.54296875 354.984375 C226.87296875 356.634375 227.20296875 358.284375 227.54296875 359.984375 C228.53296875 360.314375 229.52296875 360.644375 230.54296875 360.984375 C231.82983398 362.67089844 231.82983398 362.67089844 233.1015625 364.84375 C233.57013672 365.63007812 234.03871094 366.41640625 234.52148438 367.2265625 C235.00294922 368.05414062 235.48441406 368.88171875 235.98046875 369.734375 C238.92764419 374.74576644 241.80888056 379.50673752 245.54296875 383.984375 C250.49091833 391.61650638 252.42188031 397.91560574 251.54296875 406.984375 C250.16828715 410.65019259 248.6575543 413.54687327 245.54296875 415.984375 C244.88296875 415.984375 244.22296875 415.984375 243.54296875 415.984375 C243.54296875 416.644375 243.54296875 417.304375 243.54296875 417.984375 C240.8229914 419.50150098 238.09066561 420.99488922 235.35546875 422.484375 C234.20208008 423.12826172 234.20208008 423.12826172 233.02539062 423.78515625 C225.93697034 427.61837924 225.93697034 427.61837924 221.54296875 426.984375 C221.54296875 427.644375 221.54296875 428.304375 221.54296875 428.984375 C219.48113242 429.06588244 217.41835526 429.1237944 215.35546875 429.171875 C214.20691406 429.20667969 213.05835938 429.24148438 211.875 429.27734375 C208.17561287 428.95207524 206.46172793 428.23771758 203.54296875 425.984375 C201.91796875 424.0390625 201.91796875 424.0390625 200.54296875 421.859375 C200.03636719 421.06015625 199.52976562 420.2609375 199.0078125 419.4375 C197.22009233 416.44366461 195.53695981 413.40271774 193.87109375 410.33984375 C191.90742319 406.85721625 189.73858597 403.5167149 187.57421875 400.15625 C184.70609693 395.67756746 181.90089133 391.16017596 179.0949707 386.64233398 C178.69238037 385.99594971 178.28979004 385.34956543 177.875 384.68359375 C177.48650879 384.05888184 177.09801758 383.43416992 176.69775391 382.79052734 C175.58917412 381.05664294 174.42340076 379.3762577 173.2421875 377.69140625 C171.54296875 374.984375 171.54296875 374.984375 171.54296875 371.984375 C170.88296875 371.984375 170.22296875 371.984375 169.54296875 371.984375 C168.421875 370.39453125 168.421875 370.39453125 167.10546875 368.046875 C163.73380379 362.22157266 160.09105388 356.59815632 156.41430664 350.96313477 C155.11842194 348.97367153 153.82954304 346.97986714 152.54296875 344.984375 C151.93839844 344.05238281 151.33382813 343.12039063 150.7109375 342.16015625 C149.54296875 339.984375 149.54296875 339.984375 149.54296875 336.984375 C148.88296875 336.984375 148.22296875 336.984375 147.54296875 336.984375 C146.29370117 335.25952148 146.29370117 335.25952148 144.8984375 332.85546875 C144.38603516 331.98470703 143.87363281 331.11394531 143.34570312 330.21679688 C142.81267578 329.29447266 142.27964844 328.37214844 141.73046875 327.421875 C137.46554997 320.04428985 137.46554997 320.04428985 132.65625 313.01953125 C130.54296875 309.984375 130.54296875 309.984375 130.54296875 306.984375 C129.88296875 306.984375 129.22296875 306.984375 128.54296875 306.984375 C128.21296875 305.334375 127.88296875 303.684375 127.54296875 301.984375 C126.88296875 301.984375 126.22296875 301.984375 125.54296875 301.984375 C124.24609375 300.1484375 124.24609375 300.1484375 122.79296875 297.609375 C122.0040625 296.25199219 122.0040625 296.25199219 121.19921875 294.8671875 C120.65265625 293.91585938 120.10609375 292.96453125 119.54296875 291.984375 C118.46460916 290.14811173 117.38151112 288.31462026 116.29296875 286.484375 C115.8134375 285.6696875 115.33390625 284.855 114.83984375 284.015625 C113.57330559 281.87106254 113.57330559 281.87106254 111.54296875 279.984375 C111.54296875 278.994375 111.54296875 278.004375 111.54296875 276.984375 C110.88296875 276.984375 110.22296875 276.984375 109.54296875 276.984375 C109.21296875 275.334375 108.88296875 273.684375 108.54296875 271.984375 C107.88296875 271.984375 107.22296875 271.984375 106.54296875 271.984375 C105.70448071 270.52899932 104.87232941 269.06997127 104.04296875 267.609375 C103.57890625 266.79726563 103.11484375 265.98515625 102.63671875 265.1484375 C101.54296875 262.984375 101.54296875 262.984375 101.54296875 260.984375 C100.88296875 260.984375 100.22296875 260.984375 99.54296875 260.984375 C98.0703125 258.9375 98.0703125 258.9375 96.48046875 256.234375 C95.95324219 255.35265625 95.42601562 254.4709375 94.8828125 253.5625 C93.71457388 251.3145773 93.01076093 249.45616576 92.54296875 246.984375 C91.88296875 246.984375 91.22296875 246.984375 90.54296875 246.984375 C90.21296875 245.334375 89.88296875 243.684375 89.54296875 241.984375 C88.88296875 241.984375 88.22296875 241.984375 87.54296875 241.984375 C86.24609375 240.1484375 86.24609375 240.1484375 84.79296875 237.609375 C84.0040625 236.24619141 84.0040625 236.24619141 83.19921875 234.85546875 C82.65265625 233.90800781 82.10609375 232.96054687 81.54296875 231.984375 C79.98017833 229.42272561 78.41157284 226.86476607 76.83984375 224.30859375 C75.51089061 221.92688556 74.50022368 219.5355497 73.54296875 216.984375 C72.88296875 216.984375 72.22296875 216.984375 71.54296875 216.984375 C69.82032381 213.68888034 68.24850943 210.65318655 67.54296875 206.984375 C66.88296875 206.984375 66.22296875 206.984375 65.54296875 206.984375 C64.24609375 205.1484375 64.24609375 205.1484375 62.79296875 202.609375 C62.26316406 201.69800781 61.73335937 200.78664063 61.1875 199.84765625 C60.64480469 198.90277344 60.10210938 197.95789063 59.54296875 196.984375 C55.36144607 189.84862178 55.36144607 189.84862178 50.66796875 183.046875 C48.54296875 179.984375 48.54296875 179.984375 48.54296875 176.984375 C47.88296875 176.984375 47.22296875 176.984375 46.54296875 176.984375 C46.21296875 175.334375 45.88296875 173.684375 45.54296875 171.984375 C44.88296875 171.984375 44.22296875 171.984375 43.54296875 171.984375 C42.31640625 170.25390625 42.31640625 170.25390625 40.91796875 167.796875 C39.10988665 164.66853494 37.29157866 161.55655015 35.37109375 158.49609375 C34.82316162 157.62150513 34.82316162 157.62150513 34.26416016 156.72924805 C33.20462305 155.04271984 32.1433579 153.35727763 31.08203125 151.671875 C29.54296875 148.984375 29.54296875 148.984375 29.54296875 146.984375 C28.88296875 146.984375 28.22296875 146.984375 27.54296875 146.984375 C23.58296875 139.064375 23.58296875 139.064375 19.54296875 130.984375 C18.75314977 135.72328889 18.42178872 139.67031511 18.43109417 144.41857815 C18.43116098 145.51481801 18.43116098 145.51481801 18.43122914 146.63320413 C18.43259293 149.08325418 18.44114273 151.53322616 18.44963074 153.98326111 C18.45205906 155.7571142 18.45403385 157.53096796 18.45559388 159.30482203 C18.45996946 163.16216864 18.46756255 167.01949122 18.47759628 170.87682724 C18.49391498 177.15283993 18.50334247 183.42885241 18.51194763 189.70487976 C18.52507305 198.81627462 18.54141551 207.92765906 18.55949974 217.03904533 C18.5876895 231.4369573 18.6043643 245.83487208 18.61897278 260.23280334 C18.62409717 265.15798477 18.62927115 270.08316614 18.63444233 275.00834751 C18.63572836 276.23917869 18.63701439 277.47000986 18.6383394 278.73813896 C18.65307235 292.74819809 18.66955352 306.75825486 18.68725586 320.76831055 C18.68967797 322.6894133 18.68967797 322.6894133 18.69214902 324.64932621 C18.7186977 345.4147176 18.7564562 366.18007671 18.79744443 386.94544392 C18.83915695 408.25882496 18.86559944 429.57218893 18.87865239 450.88560683 C18.88725616 464.03584006 18.90832023 477.18593562 18.94528113 490.33612026 C18.96952995 499.34407396 18.97925267 508.35196887 18.97746106 517.35995477 C18.97688241 522.55981291 18.98289532 527.75944899 19.0063324 532.95925903 C19.02764994 537.71816644 19.0305699 542.47671514 19.01877705 547.23565239 C19.01777913 548.95834204 19.02358066 550.68105165 19.0368227 552.40369069 C19.05383255 554.74434515 19.04616164 557.08368409 19.03236675 559.42433071 C19.03442771 560.72465817 19.03648866 562.02498563 19.03861207 563.36471695 C18.42827279 567.82199379 16.97842897 570.24044191 14.54296875 573.984375 C13.88296875 573.984375 13.22296875 573.984375 12.54296875 573.984375 C12.21296875 574.974375 11.88296875 575.964375 11.54296875 576.984375 C9.41796875 578.046875 9.41796875 578.046875 6.54296875 578.984375 C4.980625 579.49871094 4.980625 579.49871094 3.38671875 580.0234375 C-0.81431001 581.07369469 -4.52772763 581.32883046 -8.83203125 581.296875 C-9.57791504 581.29413574 -10.32379883 581.29139648 -11.09228516 581.28857422 C-18.05287299 581.15655522 -23.54932111 579.92284843 -29.45703125 575.984375 C-29.45703125 575.324375 -29.45703125 574.664375 -29.45703125 573.984375 C-30.44703125 573.654375 -31.43703125 573.324375 -32.45703125 572.984375 C-32.78703125 571.334375 -33.11703125 569.684375 -33.45703125 567.984375 C-34.11703125 567.984375 -34.77703125 567.984375 -35.45703125 567.984375 C-35.78703125 423.444375 -36.11703125 278.904375 -36.45703125 129.984375 C-38.43703125 133.944375 -40.41703125 137.904375 -42.45703125 141.984375 C-43.44703125 143.634375 -44.43703125 145.284375 -45.45703125 146.984375 C-46.11703125 146.984375 -46.77703125 146.984375 -47.45703125 146.984375 C-47.72257813 147.68949219 -47.988125 148.39460937 -48.26171875 149.12109375 C-49.52202092 152.14005286 -50.99661119 154.93622576 -52.58203125 157.796875 C-53.12085938 158.77269531 -53.6596875 159.74851562 -54.21484375 160.75390625 C-54.62476563 161.48996094 -55.0346875 162.22601563 -55.45703125 162.984375 C-56.11703125 162.984375 -56.77703125 162.984375 -57.45703125 162.984375 C-57.56144531 163.53609375 -57.66585937 164.0878125 -57.7734375 164.65625 C-58.60263509 167.48026009 -59.88502775 169.70992416 -61.39453125 172.234375 C-61.91917969 173.12640625 -62.44382812 174.0184375 -62.984375 174.9375 C-63.47035156 175.61296875 -63.95632813 176.2884375 -64.45703125 176.984375 C-65.11703125 176.984375 -65.77703125 176.984375 -66.45703125 176.984375 C-66.78703125 178.634375 -67.11703125 180.284375 -67.45703125 181.984375 C-68.11703125 181.984375 -68.77703125 181.984375 -69.45703125 181.984375 C-69.72515625 182.685625 -69.99328125 183.386875 -70.26953125 184.109375 C-71.52517615 187.1493574 -72.95938248 190.0571524 -74.45703125 192.984375 C-75.11703125 192.984375 -75.77703125 192.984375 -76.45703125 192.984375 C-76.61171875 193.78875 -76.61171875 193.78875 -76.76953125 194.609375 C-77.63795822 197.60939544 -79.01323421 200.2223285 -80.45703125 202.984375 C-81.11703125 202.984375 -81.77703125 202.984375 -82.45703125 202.984375 C-82.5763501 203.56413086 -82.69566895 204.14388672 -82.81860352 204.74121094 C-83.92556659 208.63060931 -86.25335939 211.83492683 -88.39453125 215.234375 C-88.85021484 215.97945312 -89.30589844 216.72453125 -89.77539062 217.4921875 C-90.21560547 218.19601562 -90.65582031 218.89984375 -91.109375 219.625 C-91.51148193 220.26985352 -91.91358887 220.91470703 -92.32788086 221.57910156 C-92.8868103 222.27471191 -92.8868103 222.27471191 -93.45703125 222.984375 C-94.11703125 222.984375 -94.77703125 222.984375 -95.45703125 222.984375 C-95.78703125 224.634375 -96.11703125 226.284375 -96.45703125 227.984375 C-97.11703125 227.984375 -97.77703125 227.984375 -98.45703125 227.984375 C-98.57240234 228.55623535 -98.68777344 229.1280957 -98.80664062 229.71728516 C-99.51876413 232.19955951 -100.52780707 234.04978289 -101.86328125 236.2578125 C-102.35554199 237.07596436 -102.84780273 237.89411621 -103.35498047 238.73706055 C-103.88365723 239.60242432 -104.41233398 240.46778809 -104.95703125 241.359375 C-105.49730957 242.25116455 -106.03758789 243.1429541 -106.59423828 244.06176758 C-112.09666421 253.10750858 -117.77110797 262.02858223 -123.70703125 270.796875 C-125.52911797 273.50524847 -127.16902231 276.23094854 -128.70703125 279.109375 C-131.75620247 284.7355877 -135.39123509 289.96267592 -138.9609375 295.265625 C-143.66411316 302.2534044 -148.15584833 309.31259363 -152.19921875 316.703125 C-153.65096285 319.33610188 -155.13316536 321.94761771 -156.64453125 324.546875 C-157.37736328 325.81724609 -157.37736328 325.81724609 -158.125 327.11328125 C-158.56457031 327.73074219 -159.00414062 328.34820313 -159.45703125 328.984375 C-160.11703125 328.984375 -160.77703125 328.984375 -161.45703125 328.984375 C-161.72515625 329.685625 -161.99328125 330.386875 -162.26953125 331.109375 C-163.52517615 334.1493574 -164.95938248 337.0571524 -166.45703125 339.984375 C-167.11703125 339.984375 -167.77703125 339.984375 -168.45703125 339.984375 C-168.53953125 340.50773437 -168.62203125 341.03109375 -168.70703125 341.5703125 C-169.7459339 344.91428041 -171.58730196 347.68056828 -173.45703125 350.609375 C-176.09616454 354.71690307 -176.09616454 354.71690307 -178.45703125 358.984375 C-179.11703125 358.984375 -179.77703125 358.984375 -180.45703125 358.984375 C-180.53953125 359.520625 -180.62203125 360.056875 -180.70703125 360.609375 C-181.50550092 363.13786229 -182.72016808 364.99964019 -184.2265625 367.1640625 C-185.67678073 369.30946471 -187.00432375 371.51107477 -188.33203125 373.734375 C-189.09386719 375.00667969 -189.09386719 375.00667969 -189.87109375 376.3046875 C-190.9612071 378.14660316 -192.03867245 379.99604476 -193.10546875 381.8515625 C-193.63398438 382.76164062 -194.1625 383.67171875 -194.70703125 384.609375 C-195.1865625 385.44726562 -195.66609375 386.28515625 -196.16015625 387.1484375 C-196.588125 387.75429688 -197.01609375 388.36015625 -197.45703125 388.984375 C-198.11703125 388.984375 -198.77703125 388.984375 -199.45703125 388.984375 C-199.78703125 390.634375 -200.11703125 392.284375 -200.45703125 393.984375 C-201.11703125 393.984375 -201.77703125 393.984375 -202.45703125 393.984375 C-202.51890625 394.685625 -202.58078125 395.386875 -202.64453125 396.109375 C-203.71696155 399.90412835 -205.91348335 402.00656282 -208.45703125 404.984375 C-209.76197965 407.6968368 -209.76197965 407.6968368 -210.45703125 409.984375 C-211.11703125 409.984375 -211.77703125 409.984375 -212.45703125 409.984375 C-212.56015625 410.726875 -212.66328125 411.469375 -212.76953125 412.234375 C-213.50636922 415.1817269 -214.40502267 416.76820574 -216.45703125 418.984375 C-217.11703125 418.984375 -217.77703125 418.984375 -218.45703125 418.984375 C-218.47765625 419.70625 -218.49828125 420.428125 -218.51953125 421.171875 C-219.62515091 424.48873399 -221.17642577 426.10548348 -224.0703125 428.046875 C-228.96352577 429.96892276 -234.29624822 429.33360092 -239.45703125 428.984375 C-239.45703125 428.324375 -239.45703125 427.664375 -239.45703125 426.984375 C-240.44832031 426.90316406 -241.43960937 426.82195312 -242.4609375 426.73828125 C-246.96745373 426.09449322 -250.47706801 424.14779376 -254.39453125 421.921875 C-255.07837891 421.54482422 -255.76222656 421.16777344 -256.46679688 420.77929688 C-258.13560921 419.85736558 -259.79710989 418.92221988 -261.45703125 417.984375 C-261.45703125 417.324375 -261.45703125 416.664375 -261.45703125 415.984375 C-262.44703125 415.654375 -263.43703125 415.324375 -264.45703125 414.984375 C-264.45703125 414.324375 -264.45703125 413.664375 -264.45703125 412.984375 C-265.11703125 412.984375 -265.77703125 412.984375 -266.45703125 412.984375 C-268.7304417 401.66978607 -269.18274158 394.91259946 -262.83300781 385.21044922 C-261.5009144 383.23688995 -260.14137916 381.28591815 -258.76953125 379.33984375 C-257.09991985 376.96865429 -255.63702301 374.64606097 -254.45703125 371.984375 C-253.79703125 371.984375 -253.13703125 371.984375 -252.45703125 371.984375 C-252.18890625 371.26894531 -251.92078125 370.55351563 -251.64453125 369.81640625 C-250.43971818 366.94308561 -249.04466013 364.35099874 -247.45703125 361.671875 C-246.94140625 360.78886719 -246.42578125 359.90585937 -245.89453125 358.99609375 C-245.18296875 358.00029297 -245.18296875 358.00029297 -244.45703125 356.984375 C-243.79703125 356.984375 -243.13703125 356.984375 -242.45703125 356.984375 C-242.12703125 355.334375 -241.79703125 353.684375 -241.45703125 351.984375 C-240.79703125 351.984375 -240.13703125 351.984375 -239.45703125 351.984375 C-239.19535156 351.26894531 -238.93367188 350.55351563 -238.6640625 349.81640625 C-237.40532977 346.86306895 -235.8980826 344.35858006 -234.14453125 341.671875 C-231.91593313 338.2454054 -229.74188486 334.8049486 -227.64453125 331.296875 C-226.56171875 329.6571875 -226.56171875 329.6571875 -225.45703125 327.984375 C-224.79703125 327.984375 -224.13703125 327.984375 -223.45703125 327.984375 C-223.35390625 327.24960937 -223.25078125 326.51484375 -223.14453125 325.7578125 C-222.38836799 322.70738116 -221.34563389 321.10128126 -219.45703125 318.609375 C-216.39209736 314.39744131 -213.65899603 310.0924289 -211.01953125 305.609375 C-207.58116726 299.78405365 -203.9508649 294.15476194 -200.16015625 288.55078125 C-198.82259407 286.53523457 -197.57181682 284.53200973 -196.39453125 282.421875 C-194.65761777 279.3402543 -192.81146714 276.39312563 -190.89453125 273.421875 C-188.49845867 269.68893789 -186.30807922 266.01312647 -184.45703125 261.984375 C-183.79703125 261.984375 -183.13703125 261.984375 -182.45703125 261.984375 C-182.20050781 261.27539062 -181.94398438 260.56640625 -181.6796875 259.8359375 C-180.36005876 256.75820912 -178.73755311 254.15276513 -176.89453125 251.359375 C-175.01953178 248.51374171 -173.53608995 246.22155111 -172.45703125 242.984375 C-171.79703125 242.984375 -171.13703125 242.984375 -170.45703125 242.984375 C-170.18890625 242.283125 -169.92078125 241.581875 -169.64453125 240.859375 C-168.38888635 237.8193926 -166.95468002 234.9115976 -165.45703125 231.984375 C-164.79703125 231.984375 -164.13703125 231.984375 -163.45703125 231.984375 C-163.19664062 231.27023437 -162.93625 230.55609375 -162.66796875 229.8203125 C-161.39500676 226.83911764 -159.85922113 224.31784342 -158.08203125 221.609375 C-156.10669151 218.56287165 -154.15355073 215.53600089 -152.39453125 212.359375 C-150.39210025 208.87126938 -148.20752963 205.56766458 -145.9609375 202.234375 C-142.67145595 197.31296884 -139.61288346 192.25536785 -136.58203125 187.171875 C-132.67910486 180.64713546 -128.58394397 174.24865224 -124.43359375 167.87890625 C-123.71945312 166.77933594 -123.0053125 165.67976562 -122.26953125 164.546875 C-121.90359863 163.98371582 -121.53766602 163.42055664 -121.16064453 162.84033203 C-118.78817007 159.15393334 -116.51403833 155.41961685 -114.28515625 151.64453125 C-113.7439917 150.72921631 -113.20282715 149.81390137 -112.64526367 148.87084961 C-111.57103202 147.04615609 -110.5033514 145.2175882 -109.44262695 143.38500977 C-108.95366943 142.55412842 -108.46471191 141.72324707 -107.9609375 140.8671875 C-107.52595947 140.11840332 -107.09098145 139.36961914 -106.64282227 138.59814453 C-106.25151123 138.06560059 -105.8602002 137.53305664 -105.45703125 136.984375 C-104.79703125 136.984375 -104.13703125 136.984375 -103.45703125 136.984375 C-103.12703125 135.334375 -102.79703125 133.684375 -102.45703125 131.984375 C-101.79703125 131.984375 -101.13703125 131.984375 -100.45703125 131.984375 C-100.11671875 131.0253125 -100.11671875 131.0253125 -99.76953125 130.046875 C-96.3229668 122.00489129 -91.66426234 114.00167635 -86.45703125 106.984375 C-85.79703125 106.984375 -85.13703125 106.984375 -84.45703125 106.984375 C-84.35390625 106.448125 -84.25078125 105.911875 -84.14453125 105.359375 C-83.27610428 102.35935456 -81.90082829 99.7464215 -80.45703125 96.984375 C-79.79703125 96.984375 -79.13703125 96.984375 -78.45703125 96.984375 C-77.79703125 95.004375 -77.13703125 93.024375 -76.45703125 90.984375 C-75.79703125 90.984375 -75.13703125 90.984375 -74.45703125 90.984375 C-74.33521484 90.20707031 -74.33521484 90.20707031 -74.2109375 89.4140625 C-73.14908949 85.99194095 -71.27203281 83.1317798 -69.39453125 80.109375 C-68.57422009 78.76772151 -67.75523954 77.42525369 -66.9375 76.08203125 C-66.52290527 75.40156738 -66.10831055 74.72110352 -65.68115234 74.02001953 C-63.80104279 70.89350309 -62.00261397 67.72244048 -60.20703125 64.546875 C-54.24746182 54.08794937 -54.24746182 54.08794937 -51.45703125 49.984375 C-50.79703125 49.984375 -50.13703125 49.984375 -49.45703125 49.984375 C-49.38484375 49.31019531 -49.31265625 48.63601563 -49.23828125 47.94140625 C-48.2062783 44.03527508 -46.15202512 41.00802089 -43.95703125 37.671875 C-40.34804652 32.05840543 -36.93123585 26.38987799 -33.70703125 20.546875 C-24.21870986 3.49587593 -24.21870986 3.49587593 -18.45703125 0.984375 C-17.69132813 0.64148438 -16.925625 0.29859375 -16.13671875 -0.0546875 C-10.91849512 -1.92594554 -5.1654354 -2.13515613 0 0 Z " fill="#26FBDC" transform="translate(520.45703125,223.015625)"/>
<path d="M0 0 C0.33 0 0.66 0 1 0 C1.00059709 0.92164098 1.00119418 1.84328196 1.00180936 2.79285145 C1.03753702 57.39697953 1.09430989 112.00105271 1.17792095 166.60512948 C1.18793861 173.15911604 1.1977827 179.71310286 1.20751953 186.26708984 C1.2094609 187.57189002 1.21140228 188.87669019 1.21340248 190.22102976 C1.24443739 211.35793094 1.2614073 232.49482125 1.27319422 253.63174093 C1.28559804 275.31448853 1.31308208 296.99717906 1.35461307 318.67989063 C1.37977043 332.06307595 1.39311564 345.44616663 1.39142957 358.82937592 C1.39139986 368.0023579 1.4059965 377.17524337 1.43216428 386.34818774 C1.44683558 391.64328589 1.45499141 396.9381861 1.44580269 402.23330116 C1.43753302 407.08074664 1.44762325 411.9277939 1.47233662 416.77518022 C1.47803365 418.52900337 1.47698412 420.2828641 1.46851245 422.03667605 C1.19082581 434.15594217 1.19082581 434.15594217 6 445 C12.70310653 450.27300873 19.6149068 450.23221947 27.75 450.3125 C29.19632813 450.35600586 29.19632813 450.35600586 30.671875 450.40039062 C36.91847671 450.45555762 41.8599101 449.7540071 47 446 C51.28766554 440.61293304 52.12478504 436.72980707 52.1386652 429.96223927 C52.14150742 429.23784217 52.14434964 428.51344507 52.14727798 427.76709655 C52.15565113 425.32094144 52.15689524 422.87483353 52.15821838 420.42866516 C52.16278195 418.66478509 52.16778167 416.9009061 52.17318195 415.1370284 C52.18679584 410.2753368 52.1941908 405.41365222 52.20060861 400.55194652 C52.2085983 395.31472312 52.22230099 390.07751439 52.23532104 384.84030151 C52.25710413 375.76158926 52.27524191 366.68287553 52.29092598 357.60415077 C52.31360794 344.47772741 52.34175307 331.35132026 52.37124526 318.22491064 C52.41894172 296.92981412 52.46220033 275.63471097 52.50268555 254.33959961 C52.54203003 233.6494902 52.58345373 212.95938668 52.62768555 192.26928711 C52.63040982 190.99462817 52.63313409 189.71996923 52.63594092 188.40668426 C52.64962022 182.01229766 52.66334053 175.61791115 52.67708123 169.22352469 C52.79107827 116.14902874 52.89788048 63.07452004 53 10 C53.33 10 53.66 10 54 10 C54.09151419 64.66028838 54.16201772 119.32056903 54.20426132 173.98091892 C54.20926427 180.43104568 54.21444155 186.88117229 54.21972656 193.33129883 C54.2207758 194.61542701 54.22182505 195.89955519 54.22290608 197.22259634 C54.24032111 218.02717295 54.27186486 238.83170545 54.30861118 259.63625587 C54.34599002 280.9765711 54.36822938 302.31686319 54.37635398 323.65720981 C54.38184809 336.830069 54.39921365 350.00280349 54.43166587 363.1756243 C54.452776 372.20326365 54.45920798 381.23083834 54.45400551 390.25850058 C54.45143829 395.47046416 54.45543072 400.68220954 54.4768219 405.89413452 C54.49625774 410.66439049 54.49728925 415.43428108 54.48359558 420.20455372 C54.48190263 421.93145749 54.48700192 423.65838387 54.49953273 425.38524301 C54.51557119 427.73167452 54.50694394 430.07678478 54.49219131 432.42319584 C54.4937102 433.72677573 54.49522908 435.03035563 54.49679399 436.37343794 C53.88563508 440.83485611 52.43802172 443.25309381 50 447 C49.34 447 48.68 447 48 447 C47.67 447.99 47.34 448.98 47 450 C44.875 451.0625 44.875 451.0625 42 452 C40.43765625 452.51433594 40.43765625 452.51433594 38.84375 453.0390625 C34.64272124 454.08931969 30.92930362 454.34445546 26.625 454.3125 C25.50617432 454.30839111 25.50617432 454.30839111 24.36474609 454.30419922 C17.40415826 454.17218022 11.90771014 452.93847343 6 449 C6 448.34 6 447.68 6 447 C5.01 446.67 4.02 446.34 3 446 C2.67 444.35 2.34 442.7 2 441 C1.34 441 0.68 441 0 441 C-0.15027116 384.96363654 -0.29529973 328.92726163 -0.4332476 272.8908664 C-0.44951957 266.2827943 -0.46583517 259.67472231 -0.48217773 253.06665039 C-0.48543066 251.7510422 -0.48868358 250.43543401 -0.49203508 249.07995891 C-0.54488498 227.7475558 -0.60127348 206.41516386 -0.6589582 185.08277328 C-0.71802209 163.21138701 -0.77330996 141.33999358 -0.82505554 119.46858877 C-0.85713323 105.96102266 -0.89219443 92.45347094 -0.93101191 78.94592249 C-0.95730995 69.6968863 -0.97995692 60.44784578 -0.99967117 51.19879324 C-1.01117333 45.85398005 -1.02434411 40.509184 -1.04183006 35.16438675 C-1.05777495 30.27983738 -1.06917827 25.39530012 -1.07683109 20.51073091 C-1.08043895 18.73548488 -1.0857734 16.96024143 -1.09292836 15.18500615 C-1.10234642 12.78821662 -1.10570855 10.39149639 -1.10743046 7.9946909 C-1.11166182 7.29140591 -1.11589318 6.58812093 -1.12025276 5.86352429 C-1.1141458 1.1141458 -1.1141458 1.1141458 0 0 Z " fill="#007E84" transform="translate(485,350)"/>
<path d="M0 0 C3.89240604 3.46190952 6.25633067 7.44140177 8.875 11.875 C13.06891954 18.85677688 17.3592784 25.76526792 21.75 32.625 C26.11613533 39.45115036 30.44282133 46.29901221 34.71826172 53.18237305 C39.9519203 61.60246525 45.20947685 70.00790335 50.625 78.3125 C51.09760254 79.05338867 51.57020508 79.79427734 52.05712891 80.55761719 C54.57206697 84.36758093 56.57105041 87.38101422 61 89 C68.93335831 90.22811295 74.82425944 87.85944715 81.8125 84.3125 C82.72708984 83.87744141 83.64167969 83.44238281 84.58398438 82.99414062 C90.68103154 80.00104474 96.59309225 76.7603857 99 70 C99.42791187 67.52508488 99.42791187 67.52508488 99.4375 64.875 C99.49744141 63.57175781 99.49744141 63.57175781 99.55859375 62.2421875 C98.01303153 53.27144177 91.87302032 45.53239313 86.8125 38.1875 C85.56468723 36.3714525 84.3210371 34.55253618 83.08203125 32.73046875 C82.53780518 31.94051514 81.9935791 31.15056152 81.43286133 30.33666992 C79.97461906 27.95860948 78.95781723 25.6150988 78 23 C81.50258576 24.16752859 81.76096222 24.78797538 83.55859375 27.859375 C84.02716797 28.64570312 84.49574219 29.43203125 84.97851562 30.2421875 C85.45998047 31.06976562 85.94144531 31.89734375 86.4375 32.75 C89.38467544 37.76139144 92.26591181 42.52236252 96 47 C100.94794958 54.63213138 102.87891156 60.93123074 102 70 C100.6253184 73.66581759 99.11458555 76.56249827 96 79 C95.34 79 94.68 79 94 79 C94 79.66 94 80.32 94 81 C91.28002265 82.51712598 88.54769686 84.01051422 85.8125 85.5 C85.04357422 85.92925781 84.27464844 86.35851562 83.48242188 86.80078125 C76.39400159 90.63400424 76.39400159 90.63400424 72 90 C72 90.66 72 91.32 72 92 C69.93816367 92.08150744 67.87538651 92.1394194 65.8125 92.1875 C64.08966797 92.23970703 64.08966797 92.23970703 62.33203125 92.29296875 C58.63264412 91.96770024 56.91875918 91.25334258 54 89 C52.375 87.0546875 52.375 87.0546875 51 84.875 C50.49339844 84.07578125 49.98679687 83.2765625 49.46484375 82.453125 C47.67712358 79.45928961 45.99399106 76.41834274 44.328125 73.35546875 C42.36445444 69.87284125 40.19561722 66.5323399 38.03125 63.171875 C35.16312818 58.69319246 32.35792258 54.17580096 29.55200195 49.65795898 C29.14941162 49.01157471 28.74682129 48.36519043 28.33203125 47.69921875 C27.94354004 47.07450684 27.55504883 46.44979492 27.15478516 45.80615234 C26.04620537 44.07226794 24.88043201 42.3918827 23.69921875 40.70703125 C22 38 22 38 22 35 C21.34 35 20.68 35 20 35 C18.87890625 33.41015625 18.87890625 33.41015625 17.5625 31.0625 C14.19083504 25.23719766 10.54808513 19.61378132 6.87133789 13.97875977 C5.57545319 11.98929653 4.28657429 9.99549214 3 8 C2.09314453 6.60201172 2.09314453 6.60201172 1.16796875 5.17578125 C0 3 0 3 0 0 Z " fill="#045360" transform="translate(670,560)"/>
<path d="M0 0 C0.66 0 1.32 0 2 0 C0.47706168 4.39500135 -1.8809137 8.01160037 -4.5 11.8125 C-7.96154414 16.91782551 -11.32654762 22.06138492 -14.5625 27.3125 C-17.7344083 32.45263493 -20.98786936 37.53421061 -24.3046875 42.58203125 C-24.68449265 43.16034195 -25.06429779 43.73865265 -25.45561218 44.33448792 C-27.36520125 47.23977459 -29.27957398 50.14179363 -31.19946289 53.0402832 C-32.25895142 54.64842896 -32.25895142 54.64842896 -33.33984375 56.2890625 C-34.28911743 57.72306396 -34.28911743 57.72306396 -35.25756836 59.18603516 C-38.18789483 63.91840771 -40.42931057 67.79498049 -40.4375 73.4375 C-40.46650391 74.76587891 -40.46650391 74.76587891 -40.49609375 76.12109375 C-39.68756209 80.81312391 -38.01631965 84.49408592 -34.19067383 87.35131836 C-32.0624875 88.59008318 -29.90829851 89.68662716 -27.6875 90.75 C-26.95337891 91.12253906 -26.21925781 91.49507812 -25.46289062 91.87890625 C-23.32313136 92.95353246 -21.16904002 93.98593958 -19 95 C-18.35820801 95.30236572 -17.71641602 95.60473145 -17.05517578 95.91625977 C-12.16948905 98.12670148 -8.28294051 98.85871118 -3 98 C0.8936213 96.46660474 4.27520142 94.20564539 7 91 C6.89016136 94.8443525 5.98065342 96.01978628 3.25 98.8125 C-1.93357298 102.28994938 -8.02583299 101.40426694 -14 101 C-14 100.34 -14 99.68 -14 99 C-15.48693359 98.87818359 -15.48693359 98.87818359 -17.00390625 98.75390625 C-21.51042248 98.11011822 -25.02003676 96.16341876 -28.9375 93.9375 C-29.62134766 93.56044922 -30.30519531 93.18339844 -31.00976562 92.79492188 C-32.67857796 91.87299058 -34.34007864 90.93784488 -36 90 C-36 89.34 -36 88.68 -36 88 C-36.99 87.67 -37.98 87.34 -39 87 C-39 86.34 -39 85.68 -39 85 C-39.66 85 -40.32 85 -41 85 C-43.27341045 73.68541107 -43.72571033 66.92822446 -37.37597656 57.22607422 C-36.04388315 55.25251495 -34.68434791 53.30154315 -33.3125 51.35546875 C-31.6428886 48.98427929 -30.17999176 46.66168597 -29 44 C-28.34 44 -27.68 44 -27 44 C-26.731875 43.28457031 -26.46375 42.56914063 -26.1875 41.83203125 C-24.98268693 38.95871061 -23.58762888 36.36662374 -22 33.6875 C-21.484375 32.80449219 -20.96875 31.92148437 -20.4375 31.01171875 C-19.963125 30.34785156 -19.48875 29.68398438 -19 29 C-18.34 29 -17.68 29 -17 29 C-16.67 27.35 -16.34 25.7 -16 24 C-15.34 24 -14.68 24 -14 24 C-13.60748047 22.92685547 -13.60748047 22.92685547 -13.20703125 21.83203125 C-11.94829852 18.87869395 -10.44105135 16.37420506 -8.6875 13.6875 C-6.45890188 10.2610304 -4.28485361 6.8205736 -2.1875 3.3125 C-1.465625 2.219375 -0.74375 1.12625 0 0 Z " fill="#04586E" transform="translate(295,551)"/>
<path d="M0 0 C0.495 0.99 0.495 0.99 1 2 C0.20239258 3.66967773 0.20239258 3.66967773 -1.10546875 5.68359375 C-1.58798096 6.43600342 -2.07049316 7.18841309 -2.56762695 7.96362305 C-3.10218506 8.78000244 -3.63674316 9.59638184 -4.1875 10.4375 C-5.31007822 12.18217433 -6.43246915 13.92696917 -7.5546875 15.671875 C-8.4204541 17.00895508 -8.4204541 17.00895508 -9.30371094 18.37304688 C-11.83511645 22.29330065 -14.32454981 26.2395804 -16.8125 30.1875 C-17.30089355 30.96061523 -17.78928711 31.73373047 -18.29248047 32.53027344 C-24.90074715 42.99566205 -31.4463887 53.50034136 -38 64 C-49.89949346 83.06439269 -61.80515895 102.12263242 -74 121 C-74.33 120.01 -74.66 119.02 -75 118 C-73.62109375 115.41796875 -73.62109375 115.41796875 -71.4375 112.1875 C-70.60565634 110.93693854 -69.77501127 109.68557929 -68.9453125 108.43359375 C-68.24776855 107.38921143 -68.24776855 107.38921143 -67.53613281 106.32373047 C-64.5699297 101.83671183 -61.69779026 97.28928319 -58.8125 92.75 C-58.23105225 91.84016357 -57.64960449 90.93032715 -57.05053711 89.99291992 C-53.72699354 84.77884241 -50.49347465 79.52160153 -47.32836914 74.20996094 C-45.71147098 71.51998443 -44.02287983 68.88135358 -42.3125 66.25 C-39.95983167 62.580462 -37.81915617 58.9593399 -36 55 C-35.34 55 -34.68 55 -34 55 C-33.74347656 54.29101562 -33.48695313 53.58203125 -33.22265625 52.8515625 C-31.90302751 49.77383412 -30.28052186 47.16839013 -28.4375 44.375 C-26.56250053 41.52936671 -25.0790587 39.23717611 -24 36 C-23.34 36 -22.68 36 -22 36 C-21.731875 35.29875 -21.46375 34.5975 -21.1875 33.875 C-19.9318551 30.8350176 -18.49764877 27.9272226 -17 25 C-16.34 25 -15.68 25 -15 25 C-14.60941406 23.92878906 -14.60941406 23.92878906 -14.2109375 22.8359375 C-12.93797551 19.85474264 -11.40218988 17.33346842 -9.625 14.625 C-7.55570598 11.43716868 -5.53330264 8.25994476 -3.6875 4.9375 C-2 2 -2 2 0 0 Z " fill="#02637A" transform="translate(372,430)"/>
<path d="M0 0 C0.66 0 1.32 0 2 0 C3.2265625 1.73046875 3.2265625 1.73046875 4.625 4.1875 C6.4330821 7.31584006 8.25139009 10.42782485 10.171875 13.48828125 C10.53716309 14.07134033 10.90245117 14.65439941 11.27880859 15.25512695 C12.3383457 16.94165516 13.39961085 18.62709737 14.4609375 20.3125 C16 23 16 23 16 25 C16.66 25 17.32 25 18 25 C18.33 26.65 18.66 28.3 19 30 C19.66 30 20.32 30 21 30 C22.46854488 32.20281732 23.81016057 34.39466703 25.125 36.6875 C25.9274981 38.06041487 26.73090221 39.43280052 27.53515625 40.8046875 C28.14641357 41.85221191 28.14641357 41.85221191 28.77001953 42.92089844 C31.28028188 47.16412872 33.93566652 51.31909723 36.56640625 55.48828125 C38 58 38 58 38 60 C38.66 60 39.32 60 40 60 C44 66.75 44 66.75 44 69 C44.66 69 45.32 69 46 69 C46.33 70.65 46.66 72.3 47 74 C47.66 74 48.32 74 49 74 C49.66 75.98 50.32 77.96 51 80 C51.66 80 52.32 80 53 80 C53.33 81.65 53.66 83.3 54 85 C54.66 85 55.32 85 56 85 C56.33 86.65 56.66 88.3 57 90 C52.97684524 86.45401011 50.56791901 82.25204563 47.875 77.6875 C44.45730924 71.99172822 40.98353947 66.36911455 37.25 60.875 C30.90419613 51.49536099 24.98656347 41.84730483 19.01269531 32.22851562 C16.94431948 28.91068424 14.8609641 25.60268636 12.7734375 22.296875 C12.08918701 21.21075928 11.40493652 20.12464355 10.69995117 19.00561523 C9.38542691 16.91988639 8.06800563 14.8359798 6.74731445 12.75415039 C6.15394287 11.81047607 5.56057129 10.86680176 4.94921875 9.89453125 C4.42674561 9.06800049 3.90427246 8.24146973 3.3659668 7.38989258 C1.99233631 4.98659163 0.96352027 2.5917859 0 0 Z " fill="#026281" transform="translate(691,493)"/>
<path d="M0 0 C3.89240604 3.46190952 6.25633067 7.44140177 8.875 11.875 C13.06892024 18.85677804 17.35931287 25.76524491 21.75 32.625 C26.80503007 40.52898744 31.79559976 48.47007696 36.75 56.4375 C42.33339553 65.40811225 48.05205233 74.2670133 54 83 C53.34 83.66 52.68 84.32 52 85 C48.86790981 81.40389644 46.65411984 77.65885297 44.3984375 73.49609375 C42.41792094 69.96103766 40.2247764 66.57761336 38.03125 63.171875 C35.16312818 58.69319246 32.35792258 54.17580096 29.55200195 49.65795898 C29.14941162 49.01157471 28.74682129 48.36519043 28.33203125 47.69921875 C27.94354004 47.07450684 27.55504883 46.44979492 27.15478516 45.80615234 C26.04620537 44.07226794 24.88043201 42.3918827 23.69921875 40.70703125 C22 38 22 38 22 35 C21.34 35 20.68 35 20 35 C18.87890625 33.41015625 18.87890625 33.41015625 17.5625 31.0625 C14.19083504 25.23719766 10.54808513 19.61378132 6.87133789 13.97875977 C5.57545319 11.98929653 4.28657429 9.99549214 3 8 C2.09314453 6.60201172 2.09314453 6.60201172 1.16796875 5.17578125 C0 3 0 3 0 0 Z " fill="#026781" transform="translate(670,560)"/>
<path d="M0 0 C0.495 0.99 0.495 0.99 1 2 C-1.1844834 8.20853178 -1.1844834 8.20853178 -3.87109375 10.81591797 C-6.02485579 13.02549999 -7.52979726 15.17366277 -9.14453125 17.796875 C-9.73113525 18.74320801 -10.31773926 19.68954102 -10.92211914 20.66455078 C-11.54594482 21.68274902 -12.16977051 22.70094727 -12.8125 23.75 C-14.16134633 25.92975681 -15.51030787 28.10944233 -16.859375 30.2890625 C-17.54708984 31.40442383 -18.23480469 32.51978516 -18.94335938 33.66894531 C-22.13137765 38.83244499 -25.3457429 43.97937096 -28.5625 49.125 C-29.17496582 50.10549316 -29.78743164 51.08598633 -30.41845703 52.09619141 C-34.81319101 59.1238326 -39.23916998 66.13116834 -43.6875 73.125 C-44.2637915 74.03137207 -44.84008301 74.93774414 -45.43383789 75.87158203 C-48.24343612 80.27979524 -51.07902245 84.66472918 -54 89 C-54.33 88.01 -54.66 87.02 -55 86 C-54.03125 84.125 -54.03125 84.125 -52.5 82 C-50.10722247 78.58490413 -47.79005999 75.15070719 -45.5625 71.625 C-43.857536 68.93041558 -42.15289091 66.23652678 -40.421875 63.55859375 C-37.51041844 59.04300942 -34.68702707 54.48921443 -31.9609375 49.859375 C-31.42235107 48.94792725 -30.88376465 48.03647949 -30.32885742 47.09741211 C-29.24183944 45.2530548 -28.16117337 43.40493785 -27.0871582 41.55297852 C-26.58788818 40.70662842 -26.08861816 39.86027832 -25.57421875 38.98828125 C-25.12651123 38.22040283 -24.67880371 37.45252441 -24.2175293 36.66137695 C-23.81574463 36.11312256 -23.41395996 35.56486816 -23 35 C-22.34 35 -21.68 35 -21 35 C-20.67 33.35 -20.34 31.7 -20 30 C-19.34 30 -18.68 30 -18 30 C-17.773125 29.360625 -17.54625 28.72125 -17.3125 28.0625 C-13.86593555 20.02051629 -9.20723109 12.01730135 -4 5 C-3.34 5 -2.68 5 -2 5 C-1.855625 4.360625 -1.71125 3.72125 -1.5625 3.0625 C-1 1 -1 1 0 0 Z " fill="#025D7A" transform="translate(438,325)"/>
<path d="M0 0 C1.01154566 1.97891902 1.97711703 3.94447356 2.82421875 6 C5.21174467 11.53128176 7.49927079 13.54431732 13 16 C17.81255512 17.47133879 22.69796455 17.22361779 27.6875 17.25 C28.64333984 17.270625 29.59917969 17.29125 30.58398438 17.3125 C36.93962338 17.34715924 42.11880142 16.42376669 48 14 C47.67 14.99 47.34 15.98 47 17 C44.875 18.0625 44.875 18.0625 42 19 C40.9584375 19.34289062 39.916875 19.68578125 38.84375 20.0390625 C34.64272124 21.08931969 30.92930362 21.34445546 26.625 21.3125 C25.50617432 21.30839111 25.50617432 21.30839111 24.36474609 21.30419922 C17.40415826 21.17218022 11.90771014 19.93847343 6 16 C6 15.34 6 14.68 6 14 C5.01 13.67 4.02 13.34 3 13 C2.67 11.35 2.34 9.7 2 8 C1.34 8 0.68 8 0 8 C0 5.36 0 2.72 0 0 Z " fill="#06465A" transform="translate(485,783)"/>
<path d="M0 0 C0.66 0 1.32 0 2 0 C0.65494761 3.58399916 -0.94597676 6.79935678 -2.8984375 10.08984375 C-3.46046875 11.03923828 -4.0225 11.98863281 -4.6015625 12.96679688 C-5.18679688 13.94712891 -5.77203125 14.92746094 -6.375 15.9375 C-6.9525 16.91396484 -7.53 17.89042969 -8.125 18.89648438 C-12.81504549 26.79353585 -12.81504549 26.79353585 -15.3125 30.4296875 C-16.80155771 32.69774299 -17.77760365 34.62999656 -18.625 37.1875 C-19.5363358 39.90542501 -20.35767468 41.53651202 -22 44 C-22.99 44 -23.98 44 -25 44 C-25.268125 44.763125 -25.53625 45.52625 -25.8125 46.3125 C-26.94424112 48.87380884 -27.91223401 50.19692938 -30 52 C-29.67 50.35 -29.34 48.7 -29 47 C-28.34 47 -27.68 47 -27 47 C-26.34 45.02 -25.68 43.04 -25 41 C-24.34 41 -23.68 41 -23 41 C-22.91878906 40.48179687 -22.83757812 39.96359375 -22.75390625 39.4296875 C-21.69205824 36.00756595 -19.81500156 33.1474048 -17.9375 30.125 C-17.11718884 28.78334651 -16.29820829 27.44087869 -15.48046875 26.09765625 C-15.06587402 25.41719238 -14.6512793 24.73672852 -14.22412109 24.03564453 C-12.34401154 20.90912809 -10.54558272 17.73806548 -8.75 14.5625 C-2.79043057 4.10357437 -2.79043057 4.10357437 0 0 Z " fill="#02576D" transform="translate(469,273)"/>
<path d="M0 0 C-1.010625 0.433125 -2.02125 0.86625 -3.0625 1.3125 C-7.88795046 4.14253556 -10.10039458 8.23266319 -12.84082031 12.99121094 C-14.23854774 15.41338897 -15.66178738 17.81982597 -17.0859375 20.2265625 C-18.79776209 23.11995452 -20.50825654 26.01404307 -22.2121582 28.91210938 C-26.00942723 35.36508616 -29.88414397 41.74389884 -34 48 C-35 45 -35 45 -34.24658203 43.26098633 C-33.83778809 42.62443115 -33.42899414 41.98787598 -33.0078125 41.33203125 C-32.5543042 40.61136475 -32.1007959 39.89069824 -31.63354492 39.14819336 C-31.1357251 38.37741455 -30.63790527 37.60663574 -30.125 36.8125 C-29.10039794 35.18644749 -28.07830694 33.55881031 -27.05859375 31.9296875 C-26.54280762 31.10694336 -26.02702148 30.28419922 -25.49560547 29.43652344 C-23.28206131 25.83039045 -21.22979465 22.14243766 -19.1875 18.4375 C-7.26805762 -2.96106051 -7.26805762 -2.96106051 0 0 Z " fill="#035C6D" transform="translate(506,225)"/>
<path d="M0 0 C6.91834401 -0.57228949 11.71657558 -0.34363333 17.5390625 3.61328125 C19 5 19 5 20 8 C20.66 8 21.32 8 22 8 C22.33 9.65 22.66 11.3 23 13 C23.66 13 24.32 13 25 13 C25.33 14.65 25.66 16.3 26 18 C26.66 18 27.32 18 28 18 C28.69965443 19.26418246 29.38434763 20.53665402 30.0625 21.8125 C30.44535156 22.52019531 30.82820312 23.22789062 31.22265625 23.95703125 C32 26 32 26 31 29 C30.66266846 28.41508789 30.32533691 27.83017578 29.9777832 27.22753906 C28.43291555 24.56227894 26.87291671 21.90618412 25.3125 19.25 C24.78205078 18.32960937 24.25160156 17.40921875 23.70507812 16.4609375 C19.92999203 10.06876719 16.42416338 5.14475831 9 3 C5.67363264 2.55477852 2.34650993 2.24692695 -1 2 C-0.67 1.34 -0.34 0.68 0 0 Z " fill="#0B4865" transform="translate(507,222)"/>
<path d="M0 0 C0.66 0 1.32 0 2 0 C0.47708609 4.39493091 -1.88066801 8.0117631 -4.5 11.8125 C-8.20014437 17.26498713 -11.7805683 22.7728297 -15.25 28.375 C-18.72971621 33.98916738 -22.27271421 39.54543544 -26 45 C-26.99 44.67 -27.98 44.34 -29 44 C-28.34 44 -27.68 44 -27 44 C-26.5978125 42.92685547 -26.5978125 42.92685547 -26.1875 41.83203125 C-24.98268693 38.95871061 -23.58762888 36.36662374 -22 33.6875 C-21.484375 32.80449219 -20.96875 31.92148437 -20.4375 31.01171875 C-19.7259375 30.01591797 -19.7259375 30.01591797 -19 29 C-18.34 29 -17.68 29 -17 29 C-16.67 27.35 -16.34 25.7 -16 24 C-15.34 24 -14.68 24 -14 24 C-13.73832031 23.28457031 -13.47664063 22.56914063 -13.20703125 21.83203125 C-11.94829852 18.87869395 -10.44105135 16.37420506 -8.6875 13.6875 C-6.45890188 10.2610304 -4.28485361 6.8205736 -2.1875 3.3125 C-1.1046875 1.6728125 -1.1046875 1.6728125 0 0 Z " fill="#005F72" transform="translate(295,551)"/>
<path d="M0 0 C0.33 0 0.66 0 1 0 C1.09295177 7.44125325 1.16389171 14.88237996 1.20724869 22.32409763 C1.22806504 25.78015815 1.25627153 29.23581954 1.30175781 32.69165039 C1.35379891 36.67068597 1.37299459 40.64956366 1.390625 44.62890625 C1.41127014 45.86145645 1.43191528 47.09400665 1.45318604 48.36390686 C1.45495008 55.1408609 1.08251836 59.49425075 -3 65 C-3.99 64.67 -4.98 64.34 -6 64 C-5.360625 63.071875 -4.72125 62.14375 -4.0625 61.1875 C-1.41274596 57.09242557 -0.87110125 54.38160677 -0.79467773 49.6105957 C-0.77473251 48.50968094 -0.75478729 47.40876617 -0.73423767 46.27449036 C-0.70916893 44.49312935 -0.70916893 44.49312935 -0.68359375 42.67578125 C-0.66281265 41.45924362 -0.64203156 40.24270599 -0.62062073 38.98930359 C-0.55515283 35.09709404 -0.49625285 31.20481615 -0.4375 27.3125 C-0.39431218 24.67642518 -0.3506978 22.04035731 -0.30664062 19.40429688 C-0.19947422 12.93627049 -0.09770255 6.46817589 0 0 Z " fill="#006571" transform="translate(538,732)"/>
<path d="M0 0 C3.50258576 1.16752859 3.76096222 1.78797538 5.55859375 4.859375 C6.26145508 6.03886719 6.26145508 6.03886719 6.97851562 7.2421875 C7.45998047 8.06976562 7.94144531 8.89734375 8.4375 9.75 C11.38359785 14.75955909 14.25715797 19.53142172 18 24 C20.65994113 27.87497597 22.58735775 31.1542986 22 36 C20.20092215 33.30138322 18.48264197 30.56395848 16.77490234 27.80712891 C12.34868686 20.66517339 7.81318225 13.62023828 3.04882812 6.69824219 C0 2.21337183 0 2.21337183 0 0 Z " fill="#02667B" transform="translate(748,583)"/>
<path d="M0 0 C3.79513858 2.35560326 5.26600813 4.92511911 7 9 C7 9.66 7 10.32 7 11 C7.66 11 8.32 11 9 11 C9.33 12.65 9.66 14.3 10 16 C10.66 16 11.32 16 12 16 C13.47265625 18.046875 13.47265625 18.046875 15.0625 20.75 C15.58972656 21.63171875 16.11695313 22.5134375 16.66015625 23.421875 C17.82839487 25.6697977 18.53220782 27.52820924 19 30 C16.38665992 27.4767751 14.13437573 24.93476663 12 22 C11.38125 21.2575 10.7625 20.515 10.125 19.75 C5.3197385 13.5314263 2.15664703 7.57456519 0 0 Z " fill="#128D99" transform="translate(564,292)"/>
<path d="M0 0 C3 1 3 1 4.25390625 2.94140625 C4.90166016 4.23884766 4.90166016 4.23884766 5.5625 5.5625 C8.63157175 11.4903264 12.14374489 17.0499585 15.83618164 22.60375977 C16.96722678 24.35545061 17.99289663 26.17423256 19 28 C18.67 28.99 18.34 29.98 18 31 C15.11542938 26.39532682 12.23571527 21.78767378 9.36035156 17.17724609 C8.09582157 15.15336267 6.82584338 13.1330067 5.5546875 11.11328125 C4.8279082 9.95065633 4.10133383 8.78790327 3.375 7.625 C2.72273437 6.58601563 2.07046875 5.54703125 1.3984375 4.4765625 C0 2 0 2 0 0 Z " fill="#02577F" transform="translate(539,251)"/>
<path d="M0 0 C3.13704506 2.92681286 5.40043022 5.93660336 7.671875 9.5703125 C8.33574219 10.63121094 8.99960937 11.69210937 9.68359375 12.78515625 C10.36550781 13.88730469 11.04742188 14.98945312 11.75 16.125 C12.44738281 17.23488281 13.14476562 18.34476563 13.86328125 19.48828125 C19 27.74120903 19 27.74120903 19 30 C18.34 30 17.68 30 17 30 C15.75073242 28.27514648 15.75073242 28.27514648 14.35546875 25.87109375 C13.84306641 25.00033203 13.33066406 24.12957031 12.80273438 23.23242188 C12.26970703 22.31009766 11.73667969 21.38777344 11.1875 20.4375 C6.92258122 13.05991485 6.92258122 13.05991485 2.11328125 6.03515625 C0 3 0 3 0 0 Z " fill="#026179" transform="translate(651,530)"/>
<path d="M0 0 C0.66 0 1.32 0 2 0 C3.15625 1.66015625 3.15625 1.66015625 4.5 4.0625 C6.42157252 7.40021902 8.40992207 10.64942864 10.58203125 13.828125 C11.03191406 14.48675537 11.48179687 15.14538574 11.9453125 15.82397461 C12.84405337 17.1311611 13.74884461 18.43421202 14.66015625 19.73266602 C16.97930903 23.12147433 18.58377093 25.87697623 19 30 C14.74117664 26.07928047 12.00879944 20.98034011 8.9375 16.125 C8.30005859 15.13113281 7.66261719 14.13726562 7.00585938 13.11328125 C6.39419922 12.15035156 5.78253906 11.18742187 5.15234375 10.1953125 C4.59538818 9.31891113 4.03843262 8.44250977 3.46459961 7.53955078 C2.04696572 5.08143647 0.98135112 2.65850972 0 0 Z " fill="#026086" transform="translate(650,428)"/>
<path d="M0 0 C3.45235806 4.10117709 6.26112837 8.44724611 9.0625 13 C9.49626953 13.69867187 9.93003906 14.39734375 10.37695312 15.1171875 C12.61446676 18.72717906 14.82633582 22.35109488 17 26 C16.01 26 15.02 26 14 26 C12.22679144 23.55056783 10.66362028 21.15386047 9.125 18.5625 C8.68172363 17.83417969 8.23844727 17.10585938 7.78173828 16.35546875 C4.72602474 11.30641028 1.78711237 6.20260976 -1 1 C-0.67 0.67 -0.34 0.34 0 0 Z " fill="#036278" transform="translate(707,618)"/>
<path d="M0 0 C0.33 0.66 0.66 1.32 1 2 C-0.68284386 6.78281938 -2.28869503 9.5136226 -6 13 C-7.36821051 14.97630407 -8.70951192 16.97209016 -10 19 C-10.33 18.01 -10.66 17.02 -11 16 C-9.63671875 13.30078125 -9.63671875 13.30078125 -7.6875 10.3125 C-7.05199219 9.31863281 -6.41648437 8.32476562 -5.76171875 7.30078125 C-5.18035156 6.54152344 -4.59898437 5.78226562 -4 5 C-3.34 5 -2.68 5 -2 5 C-1.855625 4.360625 -1.71125 3.72125 -1.5625 3.0625 C-1 1 -1 1 0 0 Z " fill="#0B7D8F" transform="translate(438,325)"/>
<path d="M0 0 C1.32 0.33 2.64 0.66 4 1 C4.33 2.65 4.66 4.3 5 6 C5.66 6 6.32 6 7 6 C7.33 7.65 7.66 9.3 8 11 C8.66 11 9.32 11 10 11 C10.69965443 12.26418246 11.38434763 13.53665402 12.0625 14.8125 C12.44535156 15.52019531 12.82820312 16.22789062 13.22265625 16.95703125 C14 19 14 19 13 22 C11.01964052 18.70904956 9.04091554 15.41711938 7.0625 12.125 C6.49853516 11.18785156 5.93457031 10.25070313 5.35351562 9.28515625 C4.81533203 8.38925781 4.27714844 7.49335938 3.72265625 6.5703125 C3.22515869 5.74289551 2.72766113 4.91547852 2.21508789 4.06298828 C1.43224685 2.73387299 0.68983876 1.37967752 0 0 Z " fill="#045664" transform="translate(525,229)"/>
<path d="M0 0 C3.78340784 3.40071831 6.22523683 7.24206215 8.8125 11.5625 C9.23208984 12.23474609 9.65167969 12.90699219 10.08398438 13.59960938 C11.14011541 15.35170815 12.0792794 17.17310743 13 19 C12.67 19.99 12.34 20.98 12 22 C10.56154242 19.77144622 9.12420781 17.54218143 7.6875 15.3125 C7.08131836 14.37374023 7.08131836 14.37374023 6.46289062 13.41601562 C5.30268024 11.61438811 4.1511921 9.80739735 3 8 C2.40832031 7.08605469 1.81664062 6.17210937 1.20703125 5.23046875 C0 3 0 3 0 0 Z " fill="#015879" transform="translate(670,560)"/>
<path d="M0 0 C0.66 0 1.32 0 2 0 C2.83848804 1.45537568 3.67063934 2.91440373 4.5 4.375 C5.19609375 5.59316406 5.19609375 5.59316406 5.90625 6.8359375 C7 9 7 9 7 11 C7.66 11 8.32 11 9 11 C9.33 12.65 9.66 14.3 10 16 C5.00033226 12.11136953 1.65014497 9.13251669 0.3125 2.6875 C0.209375 1.800625 0.10625 0.91375 0 0 Z " fill="#13889B" transform="translate(583,322)"/>
<path d="M0 0 C0.33 0.66 0.66 1.32 1 2 C0.22265625 3.7265625 0.22265625 3.7265625 -0.9375 5.625 C-1.618125 6.73875 -2.29875 7.8525 -3 9 C-3.99 9 -4.98 9 -6 9 C-6.4021875 10.1446875 -6.4021875 10.1446875 -6.8125 11.3125 C-7.94424112 13.87380884 -8.91223401 15.19692938 -11 17 C-10.67 15.35 -10.34 13.7 -10 12 C-9.34 12 -8.68 12 -8 12 C-7.34 10.02 -6.68 8.04 -6 6 C-5.34 6 -4.68 6 -4 6 C-3.8453125 5.071875 -3.8453125 5.071875 -3.6875 4.125 C-3 2 -3 2 0 0 Z " fill="#158FA3" transform="translate(450,308)"/>
<path d="M0 0 C0.74443359 0.50660156 0.74443359 0.50660156 1.50390625 1.0234375 C5.95534637 3.94601488 9.80822254 5.81021767 15 7 C15 7.33 15 7.66 15 8 C5.21414538 8.57563851 5.21414538 8.57563851 1 5 C-0.3125 2.8125 -0.3125 2.8125 -1 1 C-0.67 0.67 -0.34 0.34 0 0 Z " fill="#09475D" transform="translate(723,644)"/>
<path d="M0 0 C0.66 0 1.32 0 2 0 C3.47265625 2.046875 3.47265625 2.046875 5.0625 4.75 C5.85333984 6.07257813 5.85333984 6.07257813 6.66015625 7.421875 C7.82839487 9.6697977 8.53220782 11.52820924 9 14 C9.66 14 10.32 14 11 14 C11.33 15.65 11.66 17.3 12 19 C8.55751941 15.85214612 6.14078806 12.34193723 3.75 8.375 C3.38648438 7.78976562 3.02296875 7.20453125 2.6484375 6.6015625 C0 2.26051457 0 2.26051457 0 0 Z " fill="#025A7A" transform="translate(612,368)"/>
<path d="M0 0 C3.24438794 2.84540172 5.38866724 6.45842886 7.6875 10.0625 C8.10322266 10.69994141 8.51894531 11.33738281 8.94726562 11.99414062 C12 16.75119304 12 16.75119304 12 19 C11.34 19 10.68 19 10 19 C8.6328125 17.0234375 8.6328125 17.0234375 7.125 14.375 C5.382517 11.35555028 3.64108934 8.40662604 1.625 5.5625 C0 3 0 3 0 0 Z " fill="#025E8A" transform="translate(636,506)"/>
<path d="M0 0 C1.98 0.66 3.96 1.32 6 2 C6.33 4.97 6.66 7.94 7 11 C3.62925682 8.79158206 1.80337439 6.60674878 0 3 C0 2.01 0 1.02 0 0 Z " fill="#19AFB5" transform="translate(569,400)"/>
<path d="M0 0 C1 2 1 2 0.25 4.5625 C-1 7 -1 7 -4 8 C-5.13545562 10.29534258 -5.13545562 10.29534258 -6 13 C-6.66666667 14.66666667 -7.33333333 16.33333333 -8 18 C-8.66 18 -9.32 18 -10 18 C-8.64737628 13.25869791 -6.66645646 9.67711421 -3.875 5.625 C-3.15054687 4.56539062 -2.42609375 3.50578125 -1.6796875 2.4140625 C-0.84824219 1.21910156 -0.84824219 1.21910156 0 0 Z " fill="#35F3E5" transform="translate(315,523)"/>
<path d="M0 0 C-1.546875 0.7425 -1.546875 0.7425 -3.125 1.5 C-7.64014604 4.03804543 -10.18296802 7.74865503 -13 12 C-13.33 11.34 -13.66 10.68 -14 10 C-11.45026095 4.28129956 -7.09014674 -2.8885783 0 0 Z " fill="#03515C" transform="translate(506,225)"/>
<path d="M0 0 C0.33 0.99 0.66 1.98 1 3 C-4.31672598 8.61209964 -4.31672598 8.61209964 -8 10 C-10.578125 9.9765625 -10.578125 9.9765625 -13.25 9.625 C-14.14203125 9.51414062 -15.0340625 9.40328125 -15.953125 9.2890625 C-16.62859375 9.19367187 -17.3040625 9.09828125 -18 9 C-18 8.67 -18 8.34 -18 8 C-16.78763672 7.85304688 -16.78763672 7.85304688 -15.55078125 7.703125 C-7.43771034 6.71798731 -7.43771034 6.71798731 -1 2 C-0.67 1.34 -0.34 0.68 0 0 Z " fill="#01515F" transform="translate(301,642)"/>
<path d="M0 0 C2.99876322 2.80319171 5.16322727 5.59434917 7.25 9.125 C8.03117188 10.42824219 8.03117188 10.42824219 8.828125 11.7578125 C10 14 10 14 10 16 C9.34 16 8.68 16 8 16 C6.52313012 13.92111288 5.18604262 11.86716626 3.875 9.6875 C3.50246094 9.09259766 3.12992188 8.49769531 2.74609375 7.88476562 C0 3.38338484 0 3.38338484 0 0 Z " fill="#015388" transform="translate(697,603)"/>
<path d="M0 0 C4.73411451 4.32833327 9.6243547 9.39380507 10.3125 16 C10.1578125 16.99 10.1578125 16.99 10 18 C7.89874818 14.84812226 5.87699601 11.65271974 3.875 8.4375 C3.50246094 7.84775391 3.12992188 7.25800781 2.74609375 6.65039062 C0 2.22948146 0 2.22948146 0 0 Z " fill="#03626E" transform="translate(760,601)"/>
<path d="M0 0 C5.75 0.875 5.75 0.875 8 2 C8 2.66 8 3.32 8 4 C11.3 4 14.6 4 18 4 C18 4.33 18 4.66 18 5 C14.04 5 10.08 5 6 5 C6 4.34 6 3.68 6 3 C4.35 3 2.7 3 1 3 C0.67 2.01 0.34 1.02 0 0 Z " fill="#0C536C" transform="translate(275,647)"/>
<path d="M0 0 C0.5534764 2.07553648 1 3.84365964 1 6 C-0.47000433 7.27400375 -1.94515781 8.5435008 -3.46484375 9.7578125 C-5.09066342 11.07336124 -6.56202021 12.48213245 -8 14 C-6.6744419 10.37723685 -5.05653045 7.36494652 -2.875 4.1875 C-2.33617187 3.39730469 -1.79734375 2.60710938 -1.2421875 1.79296875 C-0.83226562 1.20128906 -0.42234375 0.60960937 0 0 Z " fill="#31F2E2" transform="translate(276,584)"/>
<path d="M0 0 C0.66 0.66 1.32 1.32 2 2 C0.55008333 4.33896022 -0.90925408 6.67099268 -2.375 9 C-2.7875 9.66773438 -3.2 10.33546875 -3.625 11.0234375 C-4.69660955 12.71727194 -5.84330499 14.36308864 -7 16 C-7.66 16 -8.32 16 -9 16 C-7 12 -5 8 -3 4 C-2.34 4 -1.68 4 -1 4 C-0.67 2.68 -0.34 1.36 0 0 Z " fill="#035C84" transform="translate(339,481)"/>
<path d="M0 0 C0.99 0 1.98 0 3 0 C3.33 1.32 3.66 2.64 4 4 C4.66 3.34 5.32 2.68 6 2 C5.38545304 5.99455527 3.29353263 8.74466336 1 12 C1 11.01 1 10.02 1 9 C0.84872598 7.43593472 0.68097478 5.87340748 0.5 4.3125 C0.4071875 3.50425781 0.314375 2.69601562 0.21875 1.86328125 C0.1465625 1.24839844 0.074375 0.63351562 0 0 Z " fill="#15B4A7" transform="translate(416,449)"/>
<path d="M0 0 C0.33 0 0.66 0 1 0 C1.54330269 6.65545792 0.77304004 10.45834744 -3 16 C-3.99 15.67 -4.98 15.34 -6 15 C-5.38125 14.195625 -4.7625 13.39125 -4.125 12.5625 C-1.50185488 8.68359392 -0.76958672 4.55676349 0 0 Z " fill="#035265" transform="translate(538,781)"/>
<path d="M0 0 C3.70918556 1.23639519 4.26232251 2.86462482 6.03515625 6.2109375 C7.0973242 8.24703385 7.0973242 8.24703385 9 11 C8.67 11.99 8.34 12.98 8 14 C6.66101601 12.04532248 5.32870953 10.0866421 4 8.125 C3.2575 7.03445313 2.515 5.94390625 1.75 4.8203125 C0 2 0 2 0 0 Z " fill="#026084" transform="translate(669,458)"/>
<path d="M0 0 C0.33 0.66 0.66 1.32 1 2 C-0.41097867 4.45669355 -1.86043594 6.77914624 -3.4375 9.125 C-4.0881543 10.11306641 -4.0881543 10.11306641 -4.75195312 11.12109375 C-5.82749114 12.75212943 -6.91284486 14.37668453 -8 16 C-8.33 15.01 -8.66 14.02 -9 13 C-8.109375 11.3515625 -8.109375 11.3515625 -6.75 9.625 C-4.62739477 6.8420287 -2.77668331 4.02036163 -1 1 C-0.67 0.67 -0.34 0.34 0 0 Z " fill="#026578" transform="translate(382,414)"/>
<path d="M0 0 C0.33 0 0.66 0 1 0 C1.58305225 3.84814487 0.7002883 5.76308635 -1.5 8.8125 C-2.32219744 9.88364055 -3.15204049 10.9491359 -4 12 C-4 9 -4 9 -3 6 C-3.66 6 -4.32 6 -5 6 C-5 5.34 -5 4.68 -5 4 C-4.01 3.67 -3.02 3.34 -2 3 C-1.34 2.01 -0.68 1.02 0 0 Z " fill="#19B0B8" transform="translate(462,384)"/>
<path d="M0 0 C0 3.5094654 -0.5925541 5.7829808 -2 9 C-4.625 10.875 -4.625 10.875 -7 12 C-5.44298069 7.32894208 -2.91552627 3.91294315 0 0 Z " fill="#31F8E5" transform="translate(284,572)"/>
<path d="M0 0 C3.63013639 1.21004546 3.87693578 2.03622012 5.625 5.3125 C6.05039062 6.09238281 6.47578125 6.87226563 6.9140625 7.67578125 C7.90444557 9.79548602 8.52963478 11.71611553 9 14 C5.15237434 10.5798883 2.39365978 6.53225744 0 2 C0 1.34 0 0.68 0 0 Z " fill="#025D8A" transform="translate(593,338)"/>
<path d="M0 0 C3.93345152 1.31115051 4.32374076 2.84212778 6.25 6.4375 C6.79140625 7.42621094 7.3328125 8.41492188 7.890625 9.43359375 C8.25671875 10.28050781 8.6228125 11.12742187 9 12 C8.67 12.66 8.34 13.32 8 14 C7.03576974 12.60823368 6.07888398 11.2113777 5.125 9.8125 C4.59132813 9.03519531 4.05765625 8.25789063 3.5078125 7.45703125 C2.01984561 5.0323391 0.97571922 2.6666501 0 0 Z " fill="#025261" transform="translate(539,251)"/>
<path d="M0 0 C0.99 0 1.98 0 3 0 C4.60546875 2.1171875 4.60546875 2.1171875 6.1875 4.875 C6.71730469 5.77992188 7.24710938 6.68484375 7.79296875 7.6171875 C9 10 9 10 9 12 C8.34 12 7.68 12 7 12 C5.71593601 10.04775792 4.52058322 8.03659238 3.375 6 C2.74335937 4.88625 2.11171875 3.7725 1.4609375 2.625 C0.97882812 1.75875 0.49671875 0.8925 0 0 Z " fill="#02598A" transform="translate(661,548)"/>
<path d="M0 0 C0.99 0.495 0.99 0.495 2 1 C2 1.66 2 2.32 2 3 C2.99 3.33 3.98 3.66 5 4 C5 4.66 5 5.32 5 6 C5.66 6.33 6.32 6.66 7 7 C7.625 10.0625 7.625 10.0625 8 13 C4.32117927 9.71533863 2.24849899 6.33639092 0 2 C0 1.34 0 0.68 0 0 Z " fill="#34F2E5" transform="translate(705,613)"/>
<path d="M0 0 C0.33 0.66 0.66 1.32 1 2 C0.0625 4.625 0.0625 4.625 -1 7 C-1.66 7 -2.32 7 -3 7 C-3.28875 7.804375 -3.5775 8.60875 -3.875 9.4375 C-5 12 -5 12 -7 13 C-5.35821735 8.22390502 -2.73453298 4.20617096 0 0 Z " fill="#35F2E4" transform="translate(463,287)"/>
<path d="M0 0 C2.94721162 2.74395564 5.19168608 5.38337216 7 9 C6.67 9.66 6.34 10.32 6 11 C5.34 10.01 4.68 9.02 4 8 C3.01 7.67 2.02 7.34 1 7 C0.67 4.69 0.34 2.38 0 0 Z " fill="#36F4E5" transform="translate(608,364)"/>
<path d="M0 0 C2.96404505 2.80804268 5.44499019 5.18315774 7 9 C6.01 9 5.02 9 4 9 C0 2.25 0 2.25 0 0 Z " fill="#095C6D" transform="translate(717,635)"/>
<path d="M0 0 C0.66 0 1.32 0 2 0 C0.6062718 4.43458973 -1.60582235 6.87378374 -5 10 C-3.85569823 6.12697862 -2.76679902 2.99736561 0 0 Z " fill="#056B74" transform="translate(266,596)"/>
<path d="M0 0 C0.99 0.33 1.98 0.66 3 1 C3.33 2.65 3.66 4.3 4 6 C4.66 6 5.32 6 6 6 C6.33 7.65 6.66 9.3 7 11 C4.0444623 8.24829249 1.88436685 5.58029701 0 2 C0 1.34 0 0.68 0 0 Z " fill="#065B83" transform="translate(605,357)"/>
<path d="M0 0 C2.61500768 2.36595933 4.38999603 4.86049226 6 8 C5.67 8.66 5.34 9.32 5 10 C4.34 9.34 3.68 8.68 3 8 C2.01 8.495 2.01 8.495 1 9 C0.67 8.01 0.34 7.02 0 6 C0.66 6 1.32 6 2 6 C1.34 4.02 0.68 2.04 0 0 Z " fill="#35F4E4" transform="translate(545,263)"/>
<path d="M0 0 C3.465 1.485 3.465 1.485 7 3 C6.01 4.485 6.01 4.485 5 6 C3.02 5.01 1.04 4.02 -1 3 C-0.67 2.01 -0.34 1.02 0 0 Z " fill="#076472" transform="translate(269,643)"/>
<path d="M0 0 C3.08089673 2.77280706 4.68775452 5.06326356 6 9 C5.01 8.34 4.02 7.68 3 7 C3 6.34 3 5.68 3 5 C1.02 4.34 -0.96 3.68 -3 3 C-2.01 2.67 -1.02 2.34 0 2 C0 1.34 0 0.68 0 0 Z " fill="#32F4E3" transform="translate(755,596)"/>
<path d="M0 0 C0.99 0.33 1.98 0.66 3 1 C1.35 3.64 -0.3 6.28 -2 9 C-2.66 8.67 -3.32 8.34 -4 8 C-3.67 7.01 -3.34 6.02 -3 5 C-2.34 5 -1.68 5 -1 5 C-0.67 3.35 -0.34 1.7 0 0 Z " fill="#046292" transform="translate(279,575)"/>
<path d="M0 0 C0.33 1.32 0.66 2.64 1 4 C-0.21484375 5.921875 -0.21484375 5.921875 -1.9375 7.75 C-2.50339844 8.36359375 -3.06929688 8.9771875 -3.65234375 9.609375 C-4.31943359 10.29773438 -4.31943359 10.29773438 -5 11 C-5.33 10.34 -5.66 9.68 -6 9 C-4.02 6.03 -2.04 3.06 0 0 Z " fill="#35F3E5" transform="translate(322,512)"/>
<path d="M0 0 C0.33 0.66 0.66 1.32 1 2 C1.66 2 2.32 2 3 2 C1.25 6.875 1.25 6.875 -1 8 C-1.33 6.02 -1.66 4.04 -2 2 C-1.34 2 -0.68 2 0 2 C0 1.34 0 0.68 0 0 Z " fill="#2CF5E1" transform="translate(420,446)"/>
<path d="M0 0 C6.75 2.625 6.75 2.625 9 6 C5.51669784 5.35494404 2.90567134 4.01782732 0 2 C0 1.34 0 0.68 0 0 Z " fill="#054654" transform="translate(518,223)"/>
<path d="M0 0 C2.97 0.33 5.94 0.66 9 1 C9 1.66 9 2.32 9 3 C6.1875 3.1875 6.1875 3.1875 3 3 C2.01 2.01 1.02 1.02 0 0 Z " fill="#0A4961" transform="translate(493,799)"/>
<path d="M0 0 C0.33 0.99 0.66 1.98 1 3 C-0.8125 6.1875 -0.8125 6.1875 -3 9 C-3.66 9 -4.32 9 -5 9 C-3.7508258 5.54074837 -2.32472205 2.85306797 0 0 Z " fill="#055A69" transform="translate(307,633)"/>
<path d="M0 0 C2.97 0.33 5.94 0.66 9 1 C9 1.33 9 1.66 9 2 C7.35 2 5.7 2 4 2 C4 2.66 4 3.32 4 4 C3.01 4 2.02 4 1 4 C0.67 2.68 0.34 1.36 0 0 Z " fill="#30F9E5" transform="translate(510,224)"/>
<path d="M0 0 C0.66 0 1.32 0 2 0 C4.1875 2.75 4.1875 2.75 6 6 C5.61328125 8.203125 5.61328125 8.203125 5 10 C4.16121545 8.71186658 3.32913217 7.41936744 2.5 6.125 C2.0359375 5.40570313 1.571875 4.68640625 1.09375 3.9453125 C0 2 0 2 0 0 Z " fill="#017286" transform="translate(650,428)"/>
<path d="M0 0 C0.66 0 1.32 0 2 0 C0.7508258 3.45925163 -0.67527795 6.14693203 -3 9 C-3 4.73350364 -2.43160605 3.36683915 0 0 Z " fill="#036081" transform="translate(469,273)"/>
<path d="M0 0 C1.98 0.66 3.96 1.32 6 2 C6 2.99 6 3.98 6 5 C3.5625 4.1875 3.5625 4.1875 1 3 C0.67 2.01 0.34 1.02 0 0 Z " fill="#085364" transform="translate(262,640)"/>
</svg>
